<svg xmlns="http://www.w3.org/2000/svg" viewBox="0 0 64 64" fill="none" role="img" aria-label="korki">
  <path fill="#E8893A" d="M12 24c0-6.627 5.373-12 12-12h16c6.627 0 12 5.373 12 12v20c0 6.627-5.373 12-12 12H24c-6.627 0-12-5.373-12-12V24Z"/>
  <path fill="#F7F2EC" d="M18 16c2.2-3.2 5.1-4.8 8-4.8 1.8 0 3.4.5 4.8 1.4-1.2 2.4-3.4 3.4-4.8 3.4-2.2 0-4.6-1.2-8 0Zm20 0c-2.2-3.2-5.1-4.8-8-4.8-1.8 0-3.4.5-4.8 1.4 1.2 2.4 3.4 3.4 4.8 3.4 2.2 0 4.6-1.2 8 0Z"/>
  <path fill="#F7F2EC" d="M20 28c0-5.523 4.477-10 10-10h4c5.523 0 10 4.477 10 10v8c0 5.523-4.477 10-10 10h-4c-5.523 0-10-4.477-10-10v-8Z"/>
  <circle cx="32" cy="34" r="3.5" fill="#E8893A"/>
  <path fill="#F7F2EC" d="M12 42c0 0 4-6 8-6s6 4 6 4-4 8-8 8-6-2-6-6Z" opacity=".9"/>
</svg>
